<?xml version="1.0" encoding="UTF-8" standalone="no"?>
<!DOCTYPE svg PUBLIC "-//W3C//DTD SVG 1.1//EN"
 "http://www.w3.org/Graphics/SVG/1.1/DTD/svg11.dtd">
<!-- Generated by graphviz version 2.40.1 (20161225.0304)
 -->
<!-- Title: Tree Pages: 1 -->
<svg width="1440pt" height="909pt"
 viewBox="0.00 0.00 1439.50 909.00" xmlns="http://www.w3.org/2000/svg" xmlns:xlink="http://www.w3.org/1999/xlink">
<g id="graph0" class="graph" transform="scale(1 1) rotate(0) translate(4 905)">
<title>Tree</title>
<polygon fill="#ffffff" stroke="transparent" points="-4,4 -4,-905 1435.5,-905 1435.5,4 -4,4"/>
<!-- 0 -->
<g id="node1" class="node">
<title>0</title>
<path fill="#eff7fd" stroke="#000000" d="M1264,-901C1264,-901 1021,-901 1021,-901 1015,-901 1009,-895 1009,-889 1009,-889 1009,-830 1009,-830 1009,-824 1015,-818 1021,-818 1021,-818 1264,-818 1264,-818 1270,-818 1276,-824 1276,-830 1276,-830 1276,-889 1276,-889 1276,-895 1270,-901 1264,-901"/>
<text text-anchor="start" x="1094.5" y="-885.8" font-family="Helvetica,sans-Serif" font-size="14.00" fill="#000000">soy sauce ≤ 0.5</text>
<text text-anchor="start" x="1107" y="-870.8" font-family="Helvetica,sans-Serif" font-size="14.00" fill="#000000">gini = 0.766</text>
<text text-anchor="start" x="1090" y="-855.8" font-family="Helvetica,sans-Serif" font-size="14.00" fill="#000000">samples = 24272</text>
<text text-anchor="start" x="1017" y="-840.8" font-family="Helvetica,sans-Serif" font-size="14.00" fill="#000000">value = [1, 2672, 3003, 7838, 6438, 4320]</text>
<text text-anchor="start" x="1101.5" y="-825.8" font-family="Helvetica,sans-Serif" font-size="14.00" fill="#000000">class = italian</text>
</g>
<!-- 1 -->
<g id="node2" class="node">
<title>1</title>
<path fill="#eef6fd" stroke="#000000" d="M1137,-782C1137,-782 894,-782 894,-782 888,-782 882,-776 882,-770 882,-770 882,-711 882,-711 882,-705 888,-699 894,-699 894,-699 1137,-699 1137,-699 1143,-699 1149,-705 1149,-711 1149,-711 1149,-770 1149,-770 1149,-776 1143,-782 1137,-782"/>
<text text-anchor="start" x="979.5" y="-766.8" font-family="Helvetica,sans-Serif" font-size="14.00" fill="#000000">cumin ≤ 0.5</text>
<text text-anchor="start" x="980" y="-751.8" font-family="Helvetica,sans-Serif" font-size="14.00" fill="#000000">gini = 0.748</text>
<text text-anchor="start" x="963" y="-736.8" font-family="Helvetica,sans-Serif" font-size="14.00" fill="#000000">samples = 22811</text>
<text text-anchor="start" x="890" y="-721.8" font-family="Helvetica,sans-Serif" font-size="14.00" fill="#000000">value = [1, 1309, 2983, 7823, 6396, 4299]</text>
<text text-anchor="start" x="974.5" y="-706.8" font-family="Helvetica,sans-Serif" font-size="14.00" fill="#000000">class = italian</text>
</g>
<!-- 0&#45;&gt;1 -->
<g id="edge1" class="edge">
<title>0&#45;&gt;1</title>
<path fill="none" stroke="#000000" d="M1098.0816,-817.8796C1088.1814,-808.6031 1077.5991,-798.6874 1067.4269,-789.1559"/>
<polygon fill="#000000" stroke="#000000" points="1069.7984,-786.5816 1060.108,-782.2981 1065.0121,-791.6896 1069.7984,-786.5816"/>
<text text-anchor="middle" x="1060.9206" y="-803.5849" font-family="Helvetica,sans-Serif" font-size="14.00" fill="#000000">True</text>
</g>
<!-- 2 -->
<g id="node17" class="node">
<title>2</title>
<path fill="#a4e747" stroke="#000000" d="M1362,-774.5C1362,-774.5 1179,-774.5 1179,-774.5 1173,-774.5 1167,-768.5 1167,-762.5 1167,-762.5 1167,-718.5 1167,-718.5 1167,-712.5 1173,-706.5 1179,-706.5 1179,-706.5 1362,-706.5 1362,-706.5 1368,-706.5 1374,-712.5 1374,-718.5 1374,-718.5 1374,-762.5 1374,-762.5 1374,-768.5 1368,-774.5 1362,-774.5"/>
<text text-anchor="start" x="1235" y="-759.3" font-family="Helvetica,sans-Serif" font-size="14.00" fill="#000000">gini = 0.128</text>
<text text-anchor="start" x="1222" y="-744.3" font-family="Helvetica,sans-Serif" font-size="14.00" fill="#000000">samples = 1461</text>
<text text-anchor="start" x="1175" y="-729.3" font-family="Helvetica,sans-Serif" font-size="14.00" fill="#000000">value = [0, 1363, 20, 15, 42, 21]</text>
<text text-anchor="start" x="1223.5" y="-714.3" font-family="Helvetica,sans-Serif" font-size="14.00" fill="#000000">class = chinese</text>
</g>
<!-- 0&#45;&gt;2 -->
<g id="edge16" class="edge">
<title>0&#45;&gt;2</title>
<path fill="none" stroke="#000000" d="M1187.2682,-817.8796C1199.8056,-806.2237 1213.4284,-793.5587 1225.953,-781.9148"/>
<polygon fill="#000000" stroke="#000000" points="1228.6491,-784.1872 1233.5898,-774.8149 1223.8828,-779.0605 1228.6491,-784.1872"/>
<text text-anchor="middle" x="1232.6795" y="-796.0984" font-family="Helvetica,sans-Serif" font-size="14.00" fill="#000000">False</text>
</g>
<!-- 3 -->
<g id="node3" class="node">
<title>3</title>
<path fill="#d4eaf9" stroke="#000000" d="M1010,-663C1010,-663 767,-663 767,-663 761,-663 755,-657 755,-651 755,-651 755,-592 755,-592 755,-586 761,-580 767,-580 767,-580 1010,-580 1010,-580 1016,-580 1022,-586 1022,-592 1022,-592 1022,-651 1022,-651 1022,-657 1016,-663 1010,-663"/>
<text text-anchor="start" x="848.5" y="-647.8" font-family="Helvetica,sans-Serif" font-size="14.00" fill="#000000">olive oil ≤ 0.5</text>
<text text-anchor="start" x="853" y="-632.8" font-family="Helvetica,sans-Serif" font-size="14.00" fill="#000000">gini = 0.736</text>
<text text-anchor="start" x="836" y="-617.8" font-family="Helvetica,sans-Serif" font-size="14.00" fill="#000000">samples = 19928</text>
<text text-anchor="start" x="763" y="-602.8" font-family="Helvetica,sans-Serif" font-size="14.00" fill="#000000">value = [1, 1304, 2137, 7790, 4459, 4237]</text>
<text text-anchor="start" x="847.5" y="-587.8" font-family="Helvetica,sans-Serif" font-size="14.00" fill="#000000">class = italian</text>
</g>
<!-- 1&#45;&gt;3 -->
<g id="edge2" class="edge">
<title>1&#45;&gt;3</title>
<path fill="none" stroke="#000000" d="M971.0816,-698.8796C961.1814,-689.6031 950.5991,-679.6874 940.4269,-670.1559"/>
<polygon fill="#000000" stroke="#000000" points="942.7984,-667.5816 933.108,-663.2981 938.0121,-672.6896 942.7984,-667.5816"/>
</g>
<!-- 4 -->
<g id="node14" class="node">
<title>4</title>
<path fill="#bc95f1" stroke="#000000" d="M1235,-663C1235,-663 1052,-663 1052,-663 1046,-663 1040,-657 1040,-651 1040,-651 1040,-592 1040,-592 1040,-586 1046,-580 1052,-580 1052,-580 1235,-580 1235,-580 1241,-580 1247,-586 1247,-592 1247,-592 1247,-651 1247,-651 1247,-657 1241,-663 1235,-663"/>
<text text-anchor="start" x="1082.5" y="-647.8" font-family="Helvetica,sans-Serif" font-size="14.00" fill="#000000">garam masala ≤ 0.5</text>
<text text-anchor="start" x="1108" y="-632.8" font-family="Helvetica,sans-Serif" font-size="14.00" fill="#000000">gini = 0.462</text>
<text text-anchor="start" x="1095" y="-617.8" font-family="Helvetica,sans-Serif" font-size="14.00" fill="#000000">samples = 2883</text>
<text text-anchor="start" x="1048" y="-602.8" font-family="Helvetica,sans-Serif" font-size="14.00" fill="#000000">value = [0, 5, 846, 33, 1937, 62]</text>
<text text-anchor="start" x="1094.5" y="-587.8" font-family="Helvetica,sans-Serif" font-size="14.00" fill="#000000">class = mexican</text>
</g>
<!-- 1&#45;&gt;4 -->
<g id="edge13" class="edge">
<title>1&#45;&gt;4</title>
<path fill="none" stroke="#000000" d="M1060.2682,-698.8796C1070.2463,-689.6031 1080.9119,-679.6874 1091.1642,-670.1559"/>
<polygon fill="#000000" stroke="#000000" points="1093.6,-672.6704 1098.5407,-663.2981 1088.8337,-667.5436 1093.6,-672.6704"/>
</g>
<!-- 5 -->
<g id="node4" class="node">
<title>5</title>
<path fill="#f2f9fd" stroke="#000000" d="M748,-544C748,-544 505,-544 505,-544 499,-544 493,-538 493,-532 493,-532 493,-473 493,-473 493,-467 499,-461 505,-461 505,-461 748,-461 748,-461 754,-461 760,-467 760,-473 760,-473 760,-532 760,-532 760,-538 754,-544 748,-544"/>
<text text-anchor="start" x="551" y="-528.8" font-family="Helvetica,sans-Serif" font-size="14.00" fill="#000000">extra&#45;virgin olive oil ≤ 0.5</text>
<text text-anchor="start" x="591" y="-513.8" font-family="Helvetica,sans-Serif" font-size="14.00" fill="#000000">gini = 0.765</text>
<text text-anchor="start" x="574" y="-498.8" font-family="Helvetica,sans-Serif" font-size="14.00" fill="#000000">samples = 15561</text>
<text text-anchor="start" x="501" y="-483.8" font-family="Helvetica,sans-Serif" font-size="14.00" fill="#000000">value = [1, 1245, 1909, 4698, 3768, 3940]</text>
<text text-anchor="start" x="585.5" y="-468.8" font-family="Helvetica,sans-Serif" font-size="14.00" fill="#000000">class = italian</text>
</g>
<!-- 3&#45;&gt;5 -->
<g id="edge3" class="edge">
<title>3&#45;&gt;5</title>
<path fill="none" stroke="#000000" d="M796.8651,-579.8796C774.4278,-569.6886 750.2919,-558.7261 727.4452,-548.3492"/>
<polygon fill="#000000" stroke="#000000" points="728.6354,-545.0457 718.0831,-544.0969 725.7406,-551.4191 728.6354,-545.0457"/>
</g>
<!-- 6 -->
<g id="node13" class="node">
<title>6</title>
<path fill="#7ebfee" stroke="#000000" d="M996.5,-536.5C996.5,-536.5 790.5,-536.5 790.5,-536.5 784.5,-536.5 778.5,-530.5 778.5,-524.5 778.5,-524.5 778.5,-480.5 778.5,-480.5 778.5,-474.5 784.5,-468.5 790.5,-468.5 790.5,-468.5 996.5,-468.5 996.5,-468.5 1002.5,-468.5 1008.5,-474.5 1008.5,-480.5 1008.5,-480.5 1008.5,-524.5 1008.5,-524.5 1008.5,-530.5 1002.5,-536.5 996.5,-536.5"/>
<text text-anchor="start" x="858" y="-521.3" font-family="Helvetica,sans-Serif" font-size="14.00" fill="#000000">gini = 0.466</text>
<text text-anchor="start" x="845" y="-506.3" font-family="Helvetica,sans-Serif" font-size="14.00" fill="#000000">samples = 4367</text>
<text text-anchor="start" x="786.5" y="-491.3" font-family="Helvetica,sans-Serif" font-size="14.00" fill="#000000">value = [0, 59, 228, 3092, 691, 297]</text>
<text text-anchor="start" x="852.5" y="-476.3" font-family="Helvetica,sans-Serif" font-size="14.00" fill="#000000">class = italian</text>
</g>
<!-- 3&#45;&gt;6 -->
<g id="edge12" class="edge">
<title>3&#45;&gt;6</title>
<path fill="none" stroke="#000000" d="M890.2488,-579.8796C890.6969,-569.2134 891.1806,-557.7021 891.6344,-546.9015"/>
<polygon fill="#000000" stroke="#000000" points="895.1352,-546.9531 892.0582,-536.8149 888.1414,-546.6592 895.1352,-546.9531"/>
</g>
<!-- 7 -->
<g id="node5" class="node">
<title>7</title>
<path fill="#fffbfd" stroke="#000000" d="M621,-425C621,-425 378,-425 378,-425 372,-425 366,-419 366,-413 366,-413 366,-354 366,-354 366,-348 372,-342 378,-342 378,-342 621,-342 621,-342 627,-342 633,-348 633,-354 633,-354 633,-413 633,-413 633,-419 627,-425 621,-425"/>
<text text-anchor="start" x="407" y="-409.8" font-family="Helvetica,sans-Serif" font-size="14.00" fill="#000000">grated parmesan cheese ≤ 0.5</text>
<text text-anchor="start" x="464" y="-394.8" font-family="Helvetica,sans-Serif" font-size="14.00" fill="#000000">gini = 0.772</text>
<text text-anchor="start" x="447" y="-379.8" font-family="Helvetica,sans-Serif" font-size="14.00" fill="#000000">samples = 14030</text>
<text text-anchor="start" x="374" y="-364.8" font-family="Helvetica,sans-Serif" font-size="14.00" fill="#000000">value = [1, 1238, 1874, 3414, 3653, 3850]</text>
<text text-anchor="start" x="439" y="-349.8" font-family="Helvetica,sans-Serif" font-size="14.00" fill="#000000">class = southern_us</text>
</g>
<!-- 5&#45;&gt;7 -->
<g id="edge4" class="edge">
<title>5&#45;&gt;7</title>
<path fill="none" stroke="#000000" d="M582.0816,-460.8796C572.1814,-451.6031 561.5991,-441.6874 551.4269,-432.1559"/>
<polygon fill="#000000" stroke="#000000" points="553.7984,-429.5816 544.108,-425.2981 549.0121,-434.6896 553.7984,-429.5816"/>
</g>
<!-- 8 -->
<g id="node12" class="node">
<title>8</title>
<path fill="#5caeea" stroke="#000000" d="M846,-417.5C846,-417.5 663,-417.5 663,-417.5 657,-417.5 651,-411.5 651,-405.5 651,-405.5 651,-361.5 651,-361.5 651,-355.5 657,-349.5 663,-349.5 663,-349.5 846,-349.5 846,-349.5 852,-349.5 858,-355.5 858,-361.5 858,-361.5 858,-405.5 858,-405.5 858,-411.5 852,-417.5 846,-417.5"/>
<text text-anchor="start" x="719" y="-402.3" font-family="Helvetica,sans-Serif" font-size="14.00" fill="#000000">gini = 0.287</text>
<text text-anchor="start" x="706" y="-387.3" font-family="Helvetica,sans-Serif" font-size="14.00" fill="#000000">samples = 1531</text>
<text text-anchor="start" x="659" y="-372.3" font-family="Helvetica,sans-Serif" font-size="14.00" fill="#000000">value = [0, 7, 35, 1284, 115, 90]</text>
<text text-anchor="start" x="713.5" y="-357.3" font-family="Helvetica,sans-Serif" font-size="14.00" fill="#000000">class = italian</text>
</g>
<!-- 5&#45;&gt;8 -->
<g id="edge11" class="edge">
<title>5&#45;&gt;8</title>
<path fill="none" stroke="#000000" d="M671.2682,-460.8796C683.8056,-449.2237 697.4284,-436.5587 709.953,-424.9148"/>
<polygon fill="#000000" stroke="#000000" points="712.6491,-427.1872 717.5898,-417.8149 707.8828,-422.0605 712.6491,-427.1872"/>
</g>
<!-- 9 -->
<g id="node6" class="node">
<title>9</title>
<path fill="#fffcfe" stroke="#000000" d="M499,-306C499,-306 256,-306 256,-306 250,-306 244,-300 244,-294 244,-294 244,-235 244,-235 244,-229 250,-223 256,-223 256,-223 499,-223 499,-223 505,-223 511,-229 511,-235 511,-235 511,-294 511,-294 511,-300 505,-306 499,-306"/>
<text text-anchor="start" x="325" y="-290.8" font-family="Helvetica,sans-Serif" font-size="14.00" fill="#000000">cumin seed ≤ 0.5</text>
<text text-anchor="start" x="342" y="-275.8" font-family="Helvetica,sans-Serif" font-size="14.00" fill="#000000">gini = 0.772</text>
<text text-anchor="start" x="325" y="-260.8" font-family="Helvetica,sans-Serif" font-size="14.00" fill="#000000">samples = 13237</text>
<text text-anchor="start" x="252" y="-245.8" font-family="Helvetica,sans-Serif" font-size="14.00" fill="#000000">value = [1, 1236, 1874, 2708, 3636, 3782]</text>
<text text-anchor="start" x="317" y="-230.8" font-family="Helvetica,sans-Serif" font-size="14.00" fill="#000000">class = southern_us</text>
</g>
<!-- 7&#45;&gt;9 -->
<g id="edge5" class="edge">
<title>7&#45;&gt;9</title>
<path fill="none" stroke="#000000" d="M456.8303,-341.8796C447.4123,-332.6931 437.3516,-322.8798 427.6672,-313.4336"/>
<polygon fill="#000000" stroke="#000000" points="429.9543,-310.7751 420.3518,-306.2981 425.0665,-315.7861 429.9543,-310.7751"/>
</g>
<!-- 10 -->
<g id="node11" class="node">
<title>10</title>
<path fill="#51a9e8" stroke="#000000" d="M702,-298.5C702,-298.5 541,-298.5 541,-298.5 535,-298.5 529,-292.5 529,-286.5 529,-286.5 529,-242.5 529,-242.5 529,-236.5 535,-230.5 541,-230.5 541,-230.5 702,-230.5 702,-230.5 708,-230.5 714,-236.5 714,-242.5 714,-242.5 714,-286.5 714,-286.5 714,-292.5 708,-298.5 702,-298.5"/>
<text text-anchor="start" x="593.5" y="-283.3" font-family="Helvetica,sans-Serif" font-size="14.00" fill="#000000">gini = 0.2</text>
<text text-anchor="start" x="576.5" y="-268.3" font-family="Helvetica,sans-Serif" font-size="14.00" fill="#000000">samples = 793</text>
<text text-anchor="start" x="537" y="-253.3" font-family="Helvetica,sans-Serif" font-size="14.00" fill="#000000">value = [0, 2, 0, 706, 17, 68]</text>
<text text-anchor="start" x="580.5" y="-238.3" font-family="Helvetica,sans-Serif" font-size="14.00" fill="#000000">class = italian</text>
</g>
<!-- 7&#45;&gt;10 -->
<g id="edge10" class="edge">
<title>7&#45;&gt;10</title>
<path fill="none" stroke="#000000" d="M542.1697,-341.8796C554.1194,-330.2237 567.1037,-317.5587 579.0411,-305.9148"/>
<polygon fill="#000000" stroke="#000000" points="581.6053,-308.303 586.32,-298.8149 576.7175,-303.292 581.6053,-308.303"/>
</g>
<!-- 11 -->
<g id="node7" class="node">
<title>11</title>
<path fill="#fefbfd" stroke="#000000" d="M377,-187C377,-187 134,-187 134,-187 128,-187 122,-181 122,-175 122,-175 122,-116 122,-116 122,-110 128,-104 134,-104 134,-104 377,-104 377,-104 383,-104 389,-110 389,-116 389,-116 389,-175 389,-175 389,-181 383,-187 377,-187"/>
<text text-anchor="start" x="208.5" y="-171.8" font-family="Helvetica,sans-Serif" font-size="14.00" fill="#000000">buttermilk ≤ 0.5</text>
<text text-anchor="start" x="220" y="-156.8" font-family="Helvetica,sans-Serif" font-size="14.00" fill="#000000">gini = 0.764</text>
<text text-anchor="start" x="203" y="-141.8" font-family="Helvetica,sans-Serif" font-size="14.00" fill="#000000">samples = 12621</text>
<text text-anchor="start" x="130" y="-126.8" font-family="Helvetica,sans-Serif" font-size="14.00" fill="#000000">value = [1, 1231, 1339, 2708, 3570, 3772]</text>
<text text-anchor="start" x="195" y="-111.8" font-family="Helvetica,sans-Serif" font-size="14.00" fill="#000000">class = southern_us</text>
</g>
<!-- 9&#45;&gt;11 -->
<g id="edge6" class="edge">
<title>9&#45;&gt;11</title>
<path fill="none" stroke="#000000" d="M334.8303,-222.8796C325.4123,-213.6931 315.3516,-203.8798 305.6672,-194.4336"/>
<polygon fill="#000000" stroke="#000000" points="307.9543,-191.7751 298.3518,-187.2981 303.0665,-196.7861 307.9543,-191.7751"/>
</g>
<!-- 12 -->
<g id="node10" class="node">
<title>12</title>
<path fill="#56e994" stroke="#000000" d="M580,-179.5C580,-179.5 419,-179.5 419,-179.5 413,-179.5 407,-173.5 407,-167.5 407,-167.5 407,-123.5 407,-123.5 407,-117.5 413,-111.5 419,-111.5 419,-111.5 580,-111.5 580,-111.5 586,-111.5 592,-117.5 592,-123.5 592,-123.5 592,-167.5 592,-167.5 592,-173.5 586,-179.5 580,-179.5"/>
<text text-anchor="start" x="464" y="-164.3" font-family="Helvetica,sans-Serif" font-size="14.00" fill="#000000">gini = 0.234</text>
<text text-anchor="start" x="454.5" y="-149.3" font-family="Helvetica,sans-Serif" font-size="14.00" fill="#000000">samples = 616</text>
<text text-anchor="start" x="415" y="-134.3" font-family="Helvetica,sans-Serif" font-size="14.00" fill="#000000">value = [0, 5, 535, 0, 66, 10]</text>
<text text-anchor="start" x="458" y="-119.3" font-family="Helvetica,sans-Serif" font-size="14.00" fill="#000000">class = indian</text>
</g>
<!-- 9&#45;&gt;12 -->
<g id="edge9" class="edge">
<title>9&#45;&gt;12</title>
<path fill="none" stroke="#000000" d="M420.1697,-222.8796C432.1194,-211.2237 445.1037,-198.5587 457.0411,-186.9148"/>
<polygon fill="#000000" stroke="#000000" points="459.6053,-189.303 464.32,-179.8149 454.7175,-184.292 459.6053,-189.303"/>
</g>
<!-- 15 -->
<g id="node8" class="node">
<title>15</title>
<path fill="#faf6fe" stroke="#000000" d="M255,-68C255,-68 12,-68 12,-68 6,-68 0,-62 0,-56 0,-56 0,-12 0,-12 0,-6 6,0 12,0 12,0 255,0 255,0 261,0 267,-6 267,-12 267,-12 267,-56 267,-56 267,-62 261,-68 255,-68"/>
<text text-anchor="start" x="98" y="-52.8" font-family="Helvetica,sans-Serif" font-size="14.00" fill="#000000">gini = 0.768</text>
<text text-anchor="start" x="81" y="-37.8" font-family="Helvetica,sans-Serif" font-size="14.00" fill="#000000">samples = 11981</text>
<text text-anchor="start" x="8" y="-22.8" font-family="Helvetica,sans-Serif" font-size="14.00" fill="#000000">value = [1, 1230, 1330, 2686, 3558, 3176]</text>
<text text-anchor="start" x="84.5" y="-7.8" font-family="Helvetica,sans-Serif" font-size="14.00" fill="#000000">class = mexican</text>
</g>
<!-- 11&#45;&gt;15 -->
<g id="edge7" class="edge">
<title>11&#45;&gt;15</title>
<path fill="none" stroke="#000000" d="M210.0717,-103.9815C199.7139,-94.5151 188.7141,-84.462 178.3794,-75.0168"/>
<polygon fill="#000000" stroke="#000000" points="180.7331,-72.4264 170.9903,-68.2637 176.0107,-77.5935 180.7331,-72.4264"/>
</g>
<!-- 16 -->
<g id="node9" class="node">
<title>16</title>
<path fill="#e747a4" stroke="#000000" d="M458,-68C458,-68 297,-68 297,-68 291,-68 285,-62 285,-56 285,-56 285,-12 285,-12 285,-6 291,0 297,0 297,0 458,0 458,0 464,0 470,-6 470,-12 470,-12 470,-56 470,-56 470,-62 464,-68 458,-68"/>
<text text-anchor="start" x="342" y="-52.8" font-family="Helvetica,sans-Serif" font-size="14.00" fill="#000000">gini = 0.131</text>
<text text-anchor="start" x="332.5" y="-37.8" font-family="Helvetica,sans-Serif" font-size="14.00" fill="#000000">samples = 640</text>
<text text-anchor="start" x="293" y="-22.8" font-family="Helvetica,sans-Serif" font-size="14.00" fill="#000000">value = [0, 1, 9, 22, 12, 596]</text>
<text text-anchor="start" x="317" y="-7.8" font-family="Helvetica,sans-Serif" font-size="14.00" fill="#000000">class = southern_us</text>
</g>
<!-- 11&#45;&gt;16 -->
<g id="edge8" class="edge">
<title>11&#45;&gt;16</title>
<path fill="none" stroke="#000000" d="M300.9283,-103.9815C311.2861,-94.5151 322.2859,-84.462 332.6206,-75.0168"/>
<polygon fill="#000000" stroke="#000000" points="334.9893,-77.5935 340.0097,-68.2637 330.2669,-72.4264 334.9893,-77.5935"/>
</g>
<!-- 13 -->
<g id="node15" class="node">
<title>13</title>
<path fill="#a673ed" stroke="#000000" d="M1231,-536.5C1231,-536.5 1048,-536.5 1048,-536.5 1042,-536.5 1036,-530.5 1036,-524.5 1036,-524.5 1036,-480.5 1036,-480.5 1036,-474.5 1042,-468.5 1048,-468.5 1048,-468.5 1231,-468.5 1231,-468.5 1237,-468.5 1243,-474.5 1243,-480.5 1243,-480.5 1243,-524.5 1243,-524.5 1243,-530.5 1237,-536.5 1231,-536.5"/>
<text text-anchor="start" x="1104" y="-521.3" font-family="Helvetica,sans-Serif" font-size="14.00" fill="#000000">gini = 0.377</text>
<text text-anchor="start" x="1091" y="-506.3" font-family="Helvetica,sans-Serif" font-size="14.00" fill="#000000">samples = 2537</text>
<text text-anchor="start" x="1044" y="-491.3" font-family="Helvetica,sans-Serif" font-size="14.00" fill="#000000">value = [0, 5, 500, 33, 1937, 62]</text>
<text text-anchor="start" x="1090.5" y="-476.3" font-family="Helvetica,sans-Serif" font-size="14.00" fill="#000000">class = mexican</text>
</g>
<!-- 4&#45;&gt;13 -->
<g id="edge14" class="edge">
<title>4&#45;&gt;13</title>
<path fill="none" stroke="#000000" d="M1142.101,-579.8796C1141.7425,-569.2134 1141.3555,-557.7021 1140.9925,-546.9015"/>
<polygon fill="#000000" stroke="#000000" points="1144.4875,-546.6917 1140.6534,-536.8149 1137.4915,-546.9269 1144.4875,-546.6917"/>
</g>
<!-- 14 -->
<g id="node16" class="node">
<title>14</title>
<path fill="#39e581" stroke="#000000" d="M1419.5,-536.5C1419.5,-536.5 1273.5,-536.5 1273.5,-536.5 1267.5,-536.5 1261.5,-530.5 1261.5,-524.5 1261.5,-524.5 1261.5,-480.5 1261.5,-480.5 1261.5,-474.5 1267.5,-468.5 1273.5,-468.5 1273.5,-468.5 1419.5,-468.5 1419.5,-468.5 1425.5,-468.5 1431.5,-474.5 1431.5,-480.5 1431.5,-480.5 1431.5,-524.5 1431.5,-524.5 1431.5,-530.5 1425.5,-536.5 1419.5,-536.5"/>
<text text-anchor="start" x="1318.5" y="-521.3" font-family="Helvetica,sans-Serif" font-size="14.00" fill="#000000">gini = 0.0</text>
<text text-anchor="start" x="1301.5" y="-506.3" font-family="Helvetica,sans-Serif" font-size="14.00" fill="#000000">samples = 346</text>
<text text-anchor="start" x="1269.5" y="-491.3" font-family="Helvetica,sans-Serif" font-size="14.00" fill="#000000">value = [0, 0, 346, 0, 0, 0]</text>
<text text-anchor="start" x="1305" y="-476.3" font-family="Helvetica,sans-Serif" font-size="14.00" fill="#000000">class = indian</text>
</g>
<!-- 4&#45;&gt;14 -->
<g id="edge15" class="edge">
<title>4&#45;&gt;14</title>
<path fill="none" stroke="#000000" d="M1214.4995,-579.8796C1235.6086,-567.5053 1258.6579,-553.9937 1279.5034,-541.7739"/>
<polygon fill="#000000" stroke="#000000" points="1281.4332,-544.6997 1288.2901,-536.623 1277.8931,-538.6608 1281.4332,-544.6997"/>
</g>
</g>
</svg>
